<svg width="126" height="152" viewBox="0 0 126 152" fill="none" xmlns="http://www.w3.org/2000/svg">
<g clip-path="url(#clip0_613_57)">
<path d="M122.294 3.22672C116.051 -0.650918 109.934 0.765084 104.467 2.80127C96.9007 5.73462 89.5663 9.50993 82.8829 13.9054C52.6259 34.9607 34.8696 64.4064 28.0852 100.372C26.3928 109.522 25.9824 119.066 24.9561 129.472C16.3613 124.802 11.6839 115.379 3.07409 110.074C2.1144 114.334 4.29948 117.037 6.05053 119.326C13.2717 128.689 20.7048 138.047 28.345 147.188C32.054 151.549 34.8199 151.908 38.5455 148.006C46.4156 139.981 51.0657 130.337 52.289 119.291C52.2789 118.867 51.628 118.247 50.755 117.208C41.6946 119.753 44.0902 131.349 36.3469 135.77C32.6092 121.24 34.8222 107.204 38.3172 93.5621C42.0091 79.2798 46.988 65.6026 55.1818 53.3324C63.1687 41.2789 73.3306 31.5044 84.5674 22.3401C95.5872 12.9691 108.171 6.95087 122.294 3.22672Z" fill="#1E0A5C"/>
</g>
<defs>
<clipPath id="clip0_613_57">
<rect width="122" height="148" fill="white" transform="matrix(-0.99972 0.0236658 0.0236658 0.99972 122.231 0.577087)"/>
</clipPath>
</defs>
</svg>
