<svg width="416" height="440" viewBox="0 0 416 440" fill="none" xmlns="http://www.w3.org/2000/svg">
<g clip-path="url(#clip0_6536_6532)">
<g filter="url(#filter0_ddi_6536_6532)">
<rect x="110" y="85" width="196" height="56" rx="4" fill="#EB0400" shape-rendering="crispEdges"/>
<rect x="109.5" y="84.5" width="197" height="57" rx="4.5" stroke="#EB0400" shape-rendering="crispEdges"/>
<path d="M145.472 110.562C145.419 110.066 145.195 109.68 144.801 109.403C144.411 109.127 143.903 108.989 143.278 108.989C142.839 108.989 142.462 109.055 142.148 109.188C141.833 109.32 141.593 109.5 141.426 109.727C141.259 109.955 141.174 110.214 141.17 110.506C141.17 110.748 141.225 110.958 141.335 111.136C141.449 111.314 141.602 111.466 141.795 111.591C141.989 111.712 142.203 111.814 142.438 111.898C142.672 111.981 142.909 112.051 143.148 112.108L144.239 112.381C144.678 112.483 145.1 112.621 145.506 112.795C145.915 112.97 146.28 113.189 146.602 113.455C146.928 113.72 147.186 114.04 147.375 114.415C147.564 114.79 147.659 115.229 147.659 115.733C147.659 116.415 147.485 117.015 147.136 117.534C146.788 118.049 146.284 118.453 145.625 118.744C144.97 119.032 144.176 119.176 143.244 119.176C142.339 119.176 141.553 119.036 140.886 118.756C140.223 118.475 139.705 118.066 139.33 117.528C138.958 116.991 138.758 116.335 138.727 115.562H140.801C140.831 115.968 140.956 116.305 141.176 116.574C141.396 116.843 141.682 117.044 142.034 117.176C142.39 117.309 142.788 117.375 143.227 117.375C143.686 117.375 144.087 117.307 144.432 117.17C144.78 117.03 145.053 116.837 145.25 116.591C145.447 116.341 145.547 116.049 145.551 115.716C145.547 115.413 145.458 115.163 145.284 114.966C145.11 114.765 144.866 114.598 144.551 114.466C144.241 114.33 143.877 114.208 143.46 114.102L142.136 113.761C141.178 113.515 140.42 113.142 139.864 112.642C139.311 112.138 139.034 111.47 139.034 110.636C139.034 109.951 139.22 109.35 139.591 108.835C139.966 108.32 140.475 107.92 141.119 107.636C141.763 107.348 142.492 107.205 143.307 107.205C144.133 107.205 144.856 107.348 145.477 107.636C146.102 107.92 146.593 108.316 146.949 108.824C147.305 109.328 147.489 109.907 147.5 110.562H145.472ZM153.805 110.273V111.864H148.788V110.273H153.805ZM150.027 108.182H152.084V116.375C152.084 116.652 152.125 116.864 152.209 117.011C152.296 117.155 152.41 117.254 152.55 117.307C152.69 117.36 152.845 117.386 153.016 117.386C153.144 117.386 153.262 117.377 153.368 117.358C153.478 117.339 153.561 117.322 153.618 117.307L153.964 118.915C153.855 118.953 153.697 118.994 153.493 119.04C153.292 119.085 153.046 119.112 152.754 119.119C152.239 119.134 151.775 119.057 151.362 118.886C150.949 118.712 150.622 118.443 150.379 118.08C150.141 117.716 150.023 117.261 150.027 116.716V108.182ZM158.037 119.176C157.484 119.176 156.986 119.078 156.543 118.881C156.103 118.68 155.755 118.384 155.497 117.994C155.243 117.604 155.116 117.123 155.116 116.551C155.116 116.059 155.207 115.652 155.389 115.33C155.571 115.008 155.819 114.75 156.134 114.557C156.448 114.364 156.802 114.218 157.196 114.119C157.594 114.017 158.005 113.943 158.429 113.898C158.94 113.845 159.355 113.797 159.673 113.756C159.991 113.71 160.223 113.642 160.366 113.551C160.514 113.456 160.588 113.311 160.588 113.114V113.08C160.588 112.652 160.461 112.32 160.207 112.085C159.954 111.85 159.588 111.733 159.111 111.733C158.607 111.733 158.207 111.843 157.912 112.062C157.62 112.282 157.423 112.542 157.321 112.841L155.401 112.568C155.552 112.038 155.802 111.595 156.151 111.239C156.499 110.879 156.925 110.61 157.429 110.432C157.933 110.25 158.49 110.159 159.099 110.159C159.52 110.159 159.938 110.208 160.355 110.307C160.772 110.405 161.152 110.568 161.497 110.795C161.842 111.019 162.118 111.324 162.327 111.71C162.539 112.097 162.645 112.58 162.645 113.159V119H160.668V117.801H160.599C160.474 118.044 160.298 118.271 160.071 118.483C159.848 118.691 159.565 118.86 159.224 118.989C158.887 119.114 158.491 119.176 158.037 119.176ZM158.571 117.665C158.984 117.665 159.342 117.583 159.645 117.42C159.948 117.254 160.181 117.034 160.344 116.761C160.51 116.489 160.594 116.191 160.594 115.869V114.841C160.529 114.894 160.42 114.943 160.264 114.989C160.113 115.034 159.942 115.074 159.753 115.108C159.563 115.142 159.376 115.172 159.19 115.199C159.005 115.225 158.844 115.248 158.707 115.267C158.401 115.309 158.126 115.377 157.884 115.472C157.641 115.566 157.45 115.699 157.31 115.869C157.17 116.036 157.099 116.252 157.099 116.517C157.099 116.896 157.238 117.182 157.514 117.375C157.791 117.568 158.143 117.665 158.571 117.665ZM164.713 119V110.273H166.707V111.727H166.798C166.957 111.223 167.23 110.835 167.616 110.562C168.007 110.286 168.452 110.148 168.952 110.148C169.065 110.148 169.192 110.153 169.332 110.165C169.476 110.172 169.596 110.186 169.69 110.205V112.097C169.603 112.066 169.465 112.04 169.276 112.017C169.09 111.991 168.91 111.977 168.736 111.977C168.361 111.977 168.024 112.059 167.724 112.222C167.429 112.381 167.196 112.602 167.026 112.886C166.855 113.17 166.77 113.498 166.77 113.869V119H164.713ZM175.884 110.273V111.864H170.866V110.273H175.884ZM172.105 108.182H174.162V116.375C174.162 116.652 174.204 116.864 174.287 117.011C174.374 117.155 174.488 117.254 174.628 117.307C174.768 117.36 174.923 117.386 175.094 117.386C175.223 117.386 175.34 117.377 175.446 117.358C175.556 117.339 175.639 117.322 175.696 117.307L176.043 118.915C175.933 118.953 175.776 118.994 175.571 119.04C175.37 119.085 175.124 119.112 174.832 119.119C174.317 119.134 173.853 119.057 173.44 118.886C173.027 118.712 172.7 118.443 172.457 118.08C172.219 117.716 172.101 117.261 172.105 116.716V108.182ZM188.47 112.58L186.595 112.784C186.542 112.595 186.449 112.417 186.317 112.25C186.188 112.083 186.014 111.949 185.794 111.847C185.574 111.744 185.305 111.693 184.987 111.693C184.559 111.693 184.199 111.786 183.908 111.972C183.62 112.157 183.478 112.398 183.482 112.693C183.478 112.947 183.571 113.153 183.76 113.312C183.953 113.472 184.271 113.602 184.714 113.705L186.203 114.023C187.029 114.201 187.643 114.483 188.044 114.869C188.449 115.256 188.654 115.761 188.658 116.386C188.654 116.936 188.493 117.42 188.175 117.841C187.86 118.258 187.423 118.583 186.862 118.818C186.302 119.053 185.658 119.17 184.93 119.17C183.862 119.17 183.002 118.947 182.351 118.5C181.699 118.049 181.311 117.422 181.186 116.619L183.192 116.426C183.283 116.82 183.476 117.117 183.771 117.318C184.067 117.519 184.451 117.619 184.925 117.619C185.413 117.619 185.805 117.519 186.101 117.318C186.4 117.117 186.55 116.869 186.55 116.574C186.55 116.324 186.453 116.117 186.26 115.955C186.071 115.792 185.775 115.667 185.374 115.58L183.885 115.267C183.048 115.093 182.429 114.799 182.027 114.386C181.625 113.97 181.427 113.443 181.43 112.807C181.427 112.269 181.572 111.803 181.868 111.409C182.167 111.011 182.582 110.705 183.112 110.489C183.646 110.269 184.262 110.159 184.959 110.159C185.982 110.159 186.786 110.377 187.374 110.812C187.964 111.248 188.33 111.837 188.47 112.58ZM195.916 115.33V110.273H197.973V119H195.979V117.449H195.888C195.691 117.937 195.367 118.337 194.916 118.648C194.469 118.958 193.918 119.114 193.263 119.114C192.691 119.114 192.185 118.987 191.746 118.733C191.31 118.475 190.969 118.102 190.723 117.614C190.477 117.121 190.354 116.527 190.354 115.83V110.273H192.411V115.511C192.411 116.064 192.562 116.504 192.865 116.83C193.168 117.155 193.566 117.318 194.058 117.318C194.361 117.318 194.655 117.244 194.939 117.097C195.223 116.949 195.456 116.729 195.638 116.438C195.823 116.142 195.916 115.773 195.916 115.33ZM200.179 119V107.364H202.236V111.716H202.321C202.427 111.504 202.577 111.278 202.77 111.04C202.963 110.797 203.224 110.591 203.554 110.42C203.884 110.246 204.304 110.159 204.815 110.159C205.49 110.159 206.098 110.331 206.639 110.676C207.185 111.017 207.616 111.523 207.935 112.193C208.257 112.86 208.418 113.678 208.418 114.648C208.418 115.606 208.26 116.42 207.946 117.091C207.632 117.761 207.204 118.273 206.662 118.625C206.12 118.977 205.507 119.153 204.821 119.153C204.321 119.153 203.906 119.07 203.577 118.903C203.247 118.737 202.982 118.536 202.781 118.301C202.584 118.062 202.431 117.837 202.321 117.625H202.202V119H200.179ZM202.196 114.636C202.196 115.201 202.276 115.695 202.435 116.119C202.598 116.544 202.83 116.875 203.134 117.114C203.44 117.348 203.812 117.466 204.247 117.466C204.702 117.466 205.082 117.345 205.389 117.102C205.696 116.856 205.927 116.521 206.082 116.097C206.241 115.669 206.321 115.182 206.321 114.636C206.321 114.095 206.243 113.614 206.088 113.193C205.933 112.773 205.702 112.443 205.395 112.205C205.088 111.966 204.705 111.847 204.247 111.847C203.808 111.847 203.435 111.962 203.128 112.193C202.821 112.424 202.588 112.748 202.429 113.165C202.274 113.581 202.196 114.072 202.196 114.636ZM217.064 112.58L215.189 112.784C215.136 112.595 215.043 112.417 214.911 112.25C214.782 112.083 214.607 111.949 214.388 111.847C214.168 111.744 213.899 111.693 213.581 111.693C213.153 111.693 212.793 111.786 212.501 111.972C212.214 112.157 212.071 112.398 212.075 112.693C212.071 112.947 212.164 113.153 212.354 113.312C212.547 113.472 212.865 113.602 213.308 113.705L214.797 114.023C215.623 114.201 216.236 114.483 216.638 114.869C217.043 115.256 217.248 115.761 217.251 116.386C217.248 116.936 217.087 117.42 216.768 117.841C216.454 118.258 216.017 118.583 215.456 118.818C214.895 119.053 214.251 119.17 213.524 119.17C212.456 119.17 211.596 118.947 210.945 118.5C210.293 118.049 209.905 117.422 209.78 116.619L211.786 116.426C211.876 116.82 212.07 117.117 212.365 117.318C212.661 117.519 213.045 117.619 213.518 117.619C214.007 117.619 214.399 117.519 214.695 117.318C214.994 117.117 215.143 116.869 215.143 116.574C215.143 116.324 215.047 116.117 214.854 115.955C214.664 115.792 214.369 115.667 213.967 115.58L212.479 115.267C211.642 115.093 211.022 114.799 210.621 114.386C210.219 113.97 210.02 113.443 210.024 112.807C210.02 112.269 210.166 111.803 210.462 111.409C210.761 111.011 211.176 110.705 211.706 110.489C212.24 110.269 212.856 110.159 213.553 110.159C214.575 110.159 215.38 110.377 215.967 110.812C216.558 111.248 216.924 111.837 217.064 112.58ZM222.754 119.17C221.883 119.17 221.135 118.979 220.51 118.597C219.889 118.214 219.41 117.686 219.072 117.011C218.739 116.333 218.572 115.553 218.572 114.67C218.572 113.784 218.743 113.002 219.084 112.324C219.425 111.642 219.906 111.112 220.527 110.733C221.152 110.35 221.891 110.159 222.743 110.159C223.451 110.159 224.078 110.29 224.624 110.551C225.173 110.809 225.61 111.174 225.936 111.648C226.262 112.117 226.447 112.667 226.493 113.295H224.527C224.447 112.875 224.258 112.525 223.959 112.244C223.663 111.96 223.268 111.818 222.771 111.818C222.351 111.818 221.982 111.932 221.663 112.159C221.345 112.383 221.097 112.705 220.919 113.125C220.745 113.545 220.658 114.049 220.658 114.636C220.658 115.231 220.745 115.742 220.919 116.17C221.093 116.595 221.338 116.922 221.652 117.153C221.97 117.381 222.343 117.494 222.771 117.494C223.074 117.494 223.345 117.437 223.584 117.324C223.826 117.206 224.029 117.038 224.192 116.818C224.355 116.598 224.466 116.331 224.527 116.017H226.493C226.444 116.634 226.262 117.182 225.947 117.659C225.633 118.133 225.205 118.504 224.663 118.773C224.122 119.038 223.485 119.17 222.754 119.17ZM228.182 119V110.273H230.176V111.727H230.267C230.426 111.223 230.699 110.835 231.085 110.562C231.475 110.286 231.92 110.148 232.42 110.148C232.534 110.148 232.661 110.153 232.801 110.165C232.945 110.172 233.064 110.186 233.159 110.205V112.097C233.072 112.066 232.934 112.04 232.744 112.017C232.559 111.991 232.379 111.977 232.205 111.977C231.83 111.977 231.492 112.059 231.193 112.222C230.898 112.381 230.665 112.602 230.494 112.886C230.324 113.17 230.239 113.498 230.239 113.869V119H228.182ZM234.526 119V110.273H236.582V119H234.526ZM235.56 109.034C235.234 109.034 234.954 108.926 234.719 108.71C234.484 108.491 234.366 108.227 234.366 107.92C234.366 107.61 234.484 107.347 234.719 107.131C234.954 106.911 235.234 106.801 235.56 106.801C235.889 106.801 236.17 106.911 236.401 107.131C236.635 107.347 236.753 107.61 236.753 107.92C236.753 108.227 236.635 108.491 236.401 108.71C236.17 108.926 235.889 109.034 235.56 109.034ZM238.697 122.273V110.273H240.72V111.716H240.839C240.946 111.504 241.095 111.278 241.288 111.04C241.482 110.797 241.743 110.591 242.072 110.42C242.402 110.246 242.822 110.159 243.334 110.159C244.008 110.159 244.616 110.331 245.158 110.676C245.703 111.017 246.135 111.523 246.453 112.193C246.775 112.86 246.936 113.678 246.936 114.648C246.936 115.606 246.779 116.42 246.464 117.091C246.15 117.761 245.722 118.273 245.18 118.625C244.639 118.977 244.025 119.153 243.339 119.153C242.839 119.153 242.425 119.07 242.095 118.903C241.766 118.737 241.5 118.536 241.3 118.301C241.103 118.062 240.949 117.837 240.839 117.625H240.754V122.273H238.697ZM240.714 114.636C240.714 115.201 240.794 115.695 240.953 116.119C241.116 116.544 241.349 116.875 241.652 117.114C241.959 117.348 242.33 117.466 242.766 117.466C243.22 117.466 243.601 117.345 243.908 117.102C244.214 116.856 244.446 116.521 244.601 116.097C244.76 115.669 244.839 115.182 244.839 114.636C244.839 114.095 244.762 113.614 244.607 113.193C244.451 112.773 244.22 112.443 243.913 112.205C243.607 111.966 243.224 111.847 242.766 111.847C242.326 111.847 241.953 111.962 241.646 112.193C241.339 112.424 241.107 112.748 240.947 113.165C240.792 113.581 240.714 114.072 240.714 114.636ZM253.055 110.273V111.864H248.038V110.273H253.055ZM249.277 108.182H251.334V116.375C251.334 116.652 251.375 116.864 251.459 117.011C251.546 117.155 251.66 117.254 251.8 117.307C251.94 117.36 252.095 117.386 252.266 117.386C252.394 117.386 252.512 117.377 252.618 117.358C252.728 117.339 252.811 117.322 252.868 117.307L253.214 118.915C253.105 118.953 252.947 118.994 252.743 119.04C252.542 119.085 252.296 119.112 252.004 119.119C251.489 119.134 251.025 119.057 250.612 118.886C250.199 118.712 249.872 118.443 249.629 118.08C249.391 117.716 249.273 117.261 249.277 116.716V108.182ZM254.776 119V110.273H256.832V119H254.776ZM255.81 109.034C255.484 109.034 255.204 108.926 254.969 108.71C254.734 108.491 254.616 108.227 254.616 107.92C254.616 107.61 254.734 107.347 254.969 107.131C255.204 106.911 255.484 106.801 255.81 106.801C256.139 106.801 256.42 106.911 256.651 107.131C256.885 107.347 257.003 107.61 257.003 107.92C257.003 108.227 256.885 108.491 256.651 108.71C256.42 108.926 256.139 109.034 255.81 109.034ZM262.754 119.17C261.902 119.17 261.163 118.983 260.538 118.608C259.913 118.233 259.429 117.708 259.084 117.034C258.743 116.36 258.572 115.572 258.572 114.67C258.572 113.769 258.743 112.979 259.084 112.301C259.429 111.623 259.913 111.097 260.538 110.722C261.163 110.347 261.902 110.159 262.754 110.159C263.607 110.159 264.345 110.347 264.97 110.722C265.595 111.097 266.078 111.623 266.419 112.301C266.764 112.979 266.936 113.769 266.936 114.67C266.936 115.572 266.764 116.36 266.419 117.034C266.078 117.708 265.595 118.233 264.97 118.608C264.345 118.983 263.607 119.17 262.754 119.17ZM262.766 117.523C263.228 117.523 263.614 117.396 263.925 117.142C264.235 116.884 264.466 116.54 264.618 116.108C264.773 115.676 264.851 115.195 264.851 114.665C264.851 114.131 264.773 113.648 264.618 113.216C264.466 112.78 264.235 112.434 263.925 112.176C263.614 111.919 263.228 111.79 262.766 111.79C262.292 111.79 261.898 111.919 261.584 112.176C261.273 112.434 261.04 112.78 260.885 113.216C260.733 113.648 260.658 114.131 260.658 114.665C260.658 115.195 260.733 115.676 260.885 116.108C261.04 116.54 261.273 116.884 261.584 117.142C261.898 117.396 262.292 117.523 262.766 117.523ZM270.739 113.886V119H268.682V110.273H270.648V111.756H270.75C270.951 111.267 271.271 110.879 271.71 110.591C272.153 110.303 272.701 110.159 273.352 110.159C273.955 110.159 274.479 110.288 274.926 110.545C275.377 110.803 275.725 111.176 275.972 111.665C276.222 112.153 276.345 112.746 276.341 113.443V119H274.284V113.761C274.284 113.178 274.133 112.722 273.83 112.392C273.53 112.062 273.116 111.898 272.585 111.898C272.225 111.898 271.905 111.977 271.625 112.136C271.348 112.292 271.131 112.517 270.972 112.812C270.816 113.108 270.739 113.466 270.739 113.886Z" fill="white"/>
</g>
<rect x="111.146" y="78.042" width="27.1604" height="6.26778" transform="rotate(-15.217 111.146 78.042)" fill="#9DC7C8"/>
<rect x="81.8965" y="88.4883" width="16.6436" height="6.26778" transform="rotate(-15.217 81.8965 88.4883)" fill="#04724D"/>
<rect x="48.4688" y="83.6384" width="16.6436" height="6.26778" transform="rotate(-15.217 48.4688 83.6384)" fill="#A5BE00"/>
<rect x="111.146" y="27.8998" width="27.1604" height="6.26778" transform="rotate(-15.217 111.146 27.8998)" fill="#F4B860"/>
<rect x="51.4805" y="64.1244" width="14.7422" height="6.26778" transform="rotate(-107.693 51.4805 64.1244)" fill="#7139FF"/>
<circle cx="82.9425" cy="36.4402" r="3.13389" fill="#F4B860"/>
<circle cx="72.4952" cy="42.7079" r="3.13389" fill="#9DC7C8"/>
<circle cx="78.7628" cy="71.9576" r="3.13389" fill="#F4B860"/>
<circle cx="99.1339" cy="72.1339" r="3.13389" fill="#8963BA"/>
<circle cx="119.134" cy="60.1339" r="3.13389" fill="#F0F3BD"/>
<path d="M135 41L140.196 50H129.804L135 41Z" fill="#FFBC42"/>
<path d="M135 41L140.196 50H129.804L135 41Z" fill="#FFBC42"/>
<path d="M82 43L87.1962 52H76.8038L82 43Z" fill="#A6D49F"/>
<rect opacity="0.75" x="3" y="4" width="11.6505" height="4.38744" transform="rotate(124 3 4)" fill="#A5BE00"/>
<circle opacity="0.82" cx="74.5952" cy="22.1085" r="2.16238" transform="rotate(-116 74.5952 22.1085)" fill="#8963BA"/>
<path opacity="0.85" d="M116.839 19.15L107.703 17.7031L113.524 10.5151L116.839 19.15Z" fill="#FFBC42"/>
<path opacity="0.85" d="M138.091 27.442L128.618 19.4928L140.239 15.2631L138.091 27.442Z" fill="#FFBC42"/>
<rect opacity="0.85" x="194.4" y="22" width="12.1498" height="4.57548" transform="rotate(-129 194.4 22)" fill="#A5BE00"/>
<path opacity="0.89" d="M225.073 5.07294L222.491 14.7096L215.436 7.65507L225.073 5.07294Z" fill="#A6D49F"/>
<circle opacity="0.79" cx="290.883" cy="18.4351" r="2.94586" transform="rotate(-83 290.883 18.4351)" fill="#F4B860"/>
<circle opacity="0.94" cx="326.247" cy="21.3672" r="3.35326" transform="rotate(-95 326.247 21.3672)" fill="#8963BA"/>
<path opacity="0.93" d="M373.897 -2.82356L382.314 -1.49047L376.951 5.13212L373.897 -2.82356Z" fill="#FFBC42"/>
<rect opacity="0.93" x="388.4" y="8" width="10.0247" height="4.26209" transform="rotate(57 388.4 8)" fill="#7139FF"/>
<rect opacity="0.93" x="40" y="38.4" width="29.8764" height="6.89456" transform="rotate(101 40 38.4)" fill="#9DC7C8"/>
<path opacity="0.74" d="M63.5573 54.0522L58.5065 64.8836L51.6516 55.0938L63.5573 54.0522Z" fill="#FFBC42"/>
<circle opacity="0.72" cx="92.7875" cy="47.5376" r="3.13389" transform="rotate(24 92.7875 47.5376)" fill="#F4B860"/>
<circle opacity="0.87" cx="144.287" cy="47.7163" r="3.22791" transform="rotate(26 144.287 47.7163)" fill="#F4B860"/>
<rect opacity="0.87" x="177.4" y="32.4" width="15.4793" height="6.58117" transform="rotate(-163 177.4 32.4)" fill="#7139FF"/>
<path opacity="0.73" d="M215.214 39.7487L209.974 49.2016L204.407 39.9374L215.214 39.7487Z" fill="#A6D49F"/>
<rect opacity="0.96" x="282.6" y="44.4" width="16.8457" height="5.76636" transform="rotate(-85 282.6 44.4)" fill="#01BAEF"/>
<rect opacity="0.79" x="330.199" y="28.4" width="11.4841" height="4.32477" transform="rotate(87 330.199 28.4)" fill="#A5BE00"/>
<rect opacity="0.93" x="332.801" y="34.4" width="20.5078" height="7.01991" transform="rotate(150 332.801 34.4)" fill="#01BAEF"/>
<circle opacity="0.9" cx="405.781" cy="45.554" r="3.60397" transform="rotate(110 405.781 45.554)" fill="#9DC7C8"/>
<rect opacity="0.97" x="33" y="53.8" width="10.9848" height="4.13673" transform="rotate(91 33 53.8)" fill="#04724D"/>
<rect opacity="0.9" x="64.5996" y="63.8" width="12.3834" height="5.26493" transform="rotate(-166 64.5996 63.8)" fill="#7139FF"/>
<rect opacity="0.9" x="104.199" y="74.8" width="18.3105" height="6.26778" transform="rotate(118 104.199 74.8)" fill="#01BAEF"/>
<path opacity="0.75" d="M142.555 73.5019L140.825 66.0087L148.179 68.2571L142.555 73.5019Z" fill="#FFBC42"/>
<path opacity="0.86" d="M210.326 67.9777L206.592 75.9836L201.526 68.7476L210.326 67.9777Z" fill="#FFBC42"/>
<circle opacity="0.94" cx="239.778" cy="57.4317" r="2.44443" transform="rotate(-122 239.778 57.4317)" fill="#F0F3BD"/>
<rect opacity="0.74" x="249.6" y="61.8" width="30.9628" height="7.14527" transform="rotate(-45 249.6 61.8)" fill="#9DC7C8"/>
<rect opacity="0.92" x="312.199" y="53.8" width="29.6048" height="6.83188" transform="rotate(-45 312.199 53.8)" fill="#9DC7C8"/>
<path opacity="0.88" d="M357.754 79.3206L361.262 87.2005L352.683 86.2989L357.754 79.3206Z" fill="#A6D49F"/>
<path opacity="0.8" d="M382.08 52.8738L388.327 46.6276L390.613 55.1601L382.08 52.8738Z" fill="#A6D49F"/>
<path opacity="0.86" d="M5.65215 97.2855L10.3565 91.8737L12.6911 98.6537L5.65215 97.2855Z" fill="#FFBC42"/>
<circle opacity="0.7" cx="64.5536" cy="98.4135" r="2.91452" transform="rotate(146 64.5536 98.4135)" fill="#F4B860"/>
<rect opacity="0.72" x="108.199" y="80.2" width="11.9412" height="5.0769" transform="rotate(3 108.199 80.2)" fill="#7139FF"/>
<rect opacity="0.91" x="149.801" y="92.2" width="21.7283" height="5.01422" transform="rotate(130 149.801 92.2)" fill="#9DC7C8"/>
<circle opacity="0.84" cx="170.368" cy="92.5105" r="2.03703" transform="rotate(-156 170.368 92.5105)" fill="#8963BA"/>
<rect opacity="0.9" x="241" y="98.2" width="11.7187" height="4.01138" transform="rotate(-84 241 98.2)" fill="#01BAEF"/>
<circle opacity="0.86" cx="270.264" cy="107.041" r="2.72648" transform="rotate(50 270.264 107.041)" fill="#F4B860"/>
<rect opacity="0.7" x="318.199" y="97.2" width="17.3093" height="6.51849" transform="rotate(10 318.199 97.2)" fill="#04724D"/>
<path opacity="0.79" d="M340.421 99.1601L332.42 99.0204L336.542 92.1613L340.421 99.1601Z" fill="#FFBC42"/>
<rect opacity="0.93" x="380.4" y="95.2" width="17.9443" height="6.14242" transform="rotate(-37 380.4 95.2)" fill="#01BAEF"/>
<rect opacity="0.72" x="23" y="107.6" width="13.4813" height="5.0769" transform="rotate(98 23 107.6)" fill="#A5BE00"/>
<rect opacity="0.88" x="51.5996" y="119.6" width="17.2119" height="5.89171" transform="rotate(-2 51.5996 119.6)" fill="#01BAEF"/>
<rect opacity="0.93" x="91.1992" y="122.6" width="17.3093" height="6.51849" transform="rotate(125 91.1992 122.6)" fill="#A5BE00"/>
<path opacity="0.86" d="M166.018 112.782L170.262 120.765L161.226 120.45L166.018 112.782Z" fill="#FFBC42"/>
<path opacity="0.76" d="M161.058 112.261L161.439 101.356L170.692 107.139L161.058 112.261Z" fill="#FFBC42"/>
<path opacity="0.78" d="M222.01 124.9L219.033 134.64L212.087 127.191L222.01 124.9Z" fill="#A6D49F"/>
<circle opacity="0.94" cx="283.685" cy="123.596" r="2.60113" transform="rotate(-78 283.685 123.596)" fill="#F0F3BD"/>
<circle opacity="0.98" cx="307.098" cy="131.319" r="2.50711" transform="rotate(106 307.098 131.319)" fill="#F4B860"/>
<circle opacity="0.88" cx="337.94" cy="109.992" r="2.06837" transform="rotate(147 337.94 109.992)" fill="#9DC7C8"/>
<path opacity="0.79" d="M417.88 113.628L411.853 124.068L405.825 113.628L417.88 113.628Z" fill="#FFBC42"/>
<path opacity="0.75" d="M3.175 147.255L-5.88533 142.835L2.47182 137.199L3.175 147.255Z" fill="#FFBC42"/>
<circle opacity="0.92" cx="74.2185" cy="144.567" r="3.29058" transform="rotate(-38 74.2185 144.567)" fill="#F4B860"/>
<circle opacity="0.75" cx="93.9969" cy="149.334" r="3.00853" transform="rotate(144 93.9969 149.334)" fill="#F0F3BD"/>
<circle opacity="0.81" cx="125.14" cy="141.538" r="2.09971" transform="rotate(-169 125.14 141.538)" fill="#F4B860"/>
<circle cx="181.622" cy="146.003" r="2.88318" transform="rotate(56 181.622 146.003)" fill="#8963BA"/>
<rect opacity="0.81" x="214" y="154" width="23.6295" height="5.45297" transform="rotate(-167 214 154)" fill="#9DC7C8"/>
<rect opacity="0.86" x="280.6" y="138" width="28.79" height="6.64385" transform="rotate(135 280.6 138)" fill="#9DC7C8"/>
<rect opacity="0.8" x="328.199" y="142" width="13.7329" height="4.70083" transform="rotate(-136 328.199 142)" fill="#01BAEF"/>
<rect opacity="0.78" x="336.801" y="149" width="8.99273" height="3.82334" transform="rotate(-179 336.801 149)" fill="#7139FF"/>
<circle opacity="0.81" cx="382.478" cy="151.196" r="3.63531" transform="rotate(-54 382.478 151.196)" fill="#9DC7C8"/>
<path opacity="0.96" d="M19.3234 165.572L10.3462 171.401L9.78604 160.712L19.3234 165.572Z" fill="#FFBC42"/>
<rect opacity="0.71" x="61.5996" y="172.4" width="19.6394" height="7.39598" transform="rotate(126 61.5996 172.4)" fill="#04724D"/>
<path opacity="0.91" d="M114.058 160.42L119.039 155.262L121.016 162.155L114.058 160.42Z" fill="#FFBC42"/>
<circle opacity="0.9" cx="140.77" cy="158.348" r="2.09971" transform="rotate(-46 140.77 158.348)" fill="#9DC7C8"/>
<circle opacity="0.73" cx="189.344" cy="181.184" r="2.75782" transform="rotate(31 189.344 181.184)" fill="#9DC7C8"/>
<circle opacity="0.72" cx="250.807" cy="159.752" r="2.03703" transform="rotate(-58 250.807 159.752)" fill="#F0F3BD"/>
<rect opacity="0.82" x="257.6" y="167.4" width="12.982" height="4.88887" transform="rotate(-117 257.6 167.4)" fill="#A5BE00"/>
<circle opacity="0.77" cx="322.358" cy="179.064" r="2.72648" transform="rotate(140 322.358 179.064)" fill="#F4B860"/>
<circle opacity="0.76" cx="355.602" cy="162.77" r="2.53845" transform="rotate(162 355.602 162.77)" fill="#F4B860"/>
<rect opacity="0.8" x="402.4" y="172.4" width="9.72984" height="4.13673" transform="rotate(64 402.4 172.4)" fill="#7139FF"/>
<circle opacity="0.92" cx="30.631" cy="205.156" r="2.19372" transform="rotate(-77 30.631 205.156)" fill="#F0F3BD"/>
<rect opacity="0.76" x="72.5996" y="194.8" width="18.9737" height="7.14527" transform="rotate(131 72.5996 194.8)" fill="#04724D"/>
<rect opacity="0.85" x="120.199" y="203.8" width="13.268" height="5.641" transform="rotate(126 120.199 203.8)" fill="#7139FF"/>
<circle opacity="0.96" cx="140.483" cy="183.759" r="2.97719" transform="rotate(-74 140.483 183.759)" fill="#F4B860"/>
<circle opacity="0.96" cx="197.777" cy="208.725" r="2.16238" transform="rotate(-6 197.777 208.725)" fill="#8963BA"/>
<circle opacity="0.88" cx="214.431" cy="189.045" r="2.66381" transform="rotate(-178 214.431 189.045)" fill="#9DC7C8"/>
<rect opacity="0.8" x="259.6" y="205.8" width="18.1974" height="4.19941" transform="rotate(-123 259.6 205.8)" fill="#F4B860"/>
<rect opacity="0.96" x="318.199" y="190.8" width="13.1205" height="5.57832" transform="rotate(103 318.199 190.8)" fill="#7139FF"/>
<path opacity="0.88" d="M334.015 205.138L325.498 198.484L335.519 194.435L334.015 205.138Z" fill="#FFBC42"/>
<path opacity="0.91" d="M416.562 202.143L424.553 199.851L422.542 207.918L416.562 202.143Z" fill="#A6D49F"/>
<rect opacity="0.87" x="8" y="215.2" width="10.9848" height="4.13673" transform="rotate(-128 8 215.2)" fill="#A5BE00"/>
<rect opacity="0.93" x="50.5996" y="214.2" width="10.467" height="4.45012" transform="rotate(-101 50.5996 214.2)" fill="#7139FF"/>
<circle opacity="0.94" cx="95.5296" cy="219.583" r="3.50996" transform="rotate(17 95.5296 219.583)" fill="#F4B860"/>
<circle opacity="0.73" cx="144.101" cy="206.779" r="3.16523" transform="rotate(-144 144.101 206.779)" fill="#F4B860"/>
<rect opacity="0.87" x="199.4" y="219.2" width="30.6912" height="7.08259" transform="rotate(-18 199.4 219.2)" fill="#9DC7C8"/>
<rect opacity="0.88" x="233" y="222.2" width="31.2344" height="7.20794" transform="rotate(-80 233 222.2)" fill="#9DC7C8"/>
<rect opacity="0.86" x="265.6" y="217.2" width="29.0616" height="6.70652" transform="rotate(-176 265.6 217.2)" fill="#9DC7C8"/>
<path opacity="0.99" d="M321.979 214.2L325.253 219.87H318.706L321.979 214.2Z" fill="#A6D49F"/>
<rect opacity="0.76" x="363.801" y="224.2" width="12.1498" height="4.57548" transform="rotate(-7 363.801 224.2)" fill="#04724D"/>
<path opacity="0.81" d="M389.572 240.604L385.482 245.31L383.452 239.414L389.572 240.604Z" fill="#FFBC42"/>
<rect opacity="0.84" x="37" y="259.6" width="11.3525" height="3.88602" transform="rotate(21 37 259.6)" fill="#01BAEF"/>
<rect opacity="0.71" x="76.5996" y="247.6" width="11.1694" height="3.82334" transform="rotate(168 76.5996 247.6)" fill="#01BAEF"/>
<path opacity="0.77" d="M107.238 250.034L102.291 242.968L110.884 242.217L107.238 250.034Z" fill="#FFBC42"/>
<rect opacity="0.88" x="136.801" y="249.6" width="26.074" height="6.01707" transform="rotate(-139 136.801 249.6)" fill="#F4B860"/>
<circle opacity="0.85" cx="208.832" cy="243.677" r="3.13389" transform="rotate(-44 208.832 243.677)" fill="#9DC7C8"/>
<rect opacity="0.99" x="236" y="263.6" width="28.2468" height="6.51849" transform="rotate(68 236 263.6)" fill="#F4B860"/>
<circle opacity="0.88" cx="281.203" cy="237.359" r="3.25924" transform="rotate(-48 281.203 237.359)" fill="#F4B860"/>
<rect opacity="0.88" x="302.199" y="256.6" width="19.2839" height="4.45012" transform="rotate(55 302.199 256.6)" fill="#9DC7C8"/>
<circle opacity="0.7" cx="355.954" cy="261.513" r="1.88033" transform="rotate(89 355.954 261.513)" fill="#9DC7C8"/>
<rect opacity="0.83" x="385.4" y="255.6" width="15.9779" height="6.01707" transform="rotate(35 385.4 255.6)" fill="#A5BE00"/>
</g>
<defs>
<filter id="filter0_ddi_6536_6532" x="105" y="81" width="206" height="67" filterUnits="userSpaceOnUse" color-interpolation-filters="sRGB">
<feFlood flood-opacity="0" result="BackgroundImageFix"/>
<feColorMatrix in="SourceAlpha" type="matrix" values="0 0 0 0 0 0 0 0 0 0 0 0 0 0 0 0 0 0 127 0" result="hardAlpha"/>
<feOffset dy="1"/>
<feGaussianBlur stdDeviation="2"/>
<feComposite in2="hardAlpha" operator="out"/>
<feColorMatrix type="matrix" values="0 0 0 0 0 0 0 0 0 0 0 0 0 0 0 0 0 0 0.1 0"/>
<feBlend mode="normal" in2="BackgroundImageFix" result="effect1_dropShadow_6536_6532"/>
<feColorMatrix in="SourceAlpha" type="matrix" values="0 0 0 0 0 0 0 0 0 0 0 0 0 0 0 0 0 0 127 0" result="hardAlpha"/>
<feOffset dy="2"/>
<feGaussianBlur stdDeviation="2"/>
<feComposite in2="hardAlpha" operator="out"/>
<feColorMatrix type="matrix" values="0 0 0 0 0 0 0 0 0 0 0 0 0 0 0 0 0 0 0.2 0"/>
<feBlend mode="normal" in2="effect1_dropShadow_6536_6532" result="effect2_dropShadow_6536_6532"/>
<feBlend mode="normal" in="SourceGraphic" in2="effect2_dropShadow_6536_6532" result="shape"/>
<feColorMatrix in="SourceAlpha" type="matrix" values="0 0 0 0 0 0 0 0 0 0 0 0 0 0 0 0 0 0 127 0" result="hardAlpha"/>
<feOffset dy="2"/>
<feComposite in2="hardAlpha" operator="arithmetic" k2="-1" k3="1"/>
<feColorMatrix type="matrix" values="0 0 0 0 1 0 0 0 0 1 0 0 0 0 1 0 0 0 0.3 0"/>
<feBlend mode="normal" in2="shape" result="effect3_innerShadow_6536_6532"/>
</filter>
<clipPath id="clip0_6536_6532">
<rect width="416" height="440" rx="16" fill="white"/>
</clipPath>
</defs>
</svg>
